<svg width="24" height="24" viewBox="0 0 24 24" fill="none" xmlns="http://www.w3.org/2000/svg">
<path d="M20 16.5H22V18.5H2V16.5H4V9.5C4 7.37827 4.84285 5.34344 6.34315 3.84315C7.84344 2.34285 9.87827 1.5 12 1.5C14.1217 1.5 16.1566 2.34285 17.6569 3.84315C19.1571 5.34344 20 7.37827 20 9.5V16.5ZM18 16.5V9.5C18 7.9087 17.3679 6.38258 16.2426 5.25736C15.1174 4.13214 13.5913 3.5 12 3.5C10.4087 3.5 8.88258 4.13214 7.75736 5.25736C6.63214 6.38258 6 7.9087 6 9.5V16.5H18ZM9 20.5H15V22.5H9V20.5Z" fill="#667085"/>
</svg>
