<svg width="13" height="12" viewBox="0 0 13 12" fill="none" xmlns="http://www.w3.org/2000/svg">
<path d="M10.0455 7.09091H8.68182V4.90909H10.0455C10.5309 4.90909 11.0055 4.76513 11.4091 4.49543C11.8128 4.22572 12.1274 3.84237 12.3132 3.39386C12.4989 2.94535 12.5475 2.45182 12.4528 1.97569C12.3581 1.49955 12.1244 1.06219 11.7811 0.718921C11.4378 0.375646 11.0004 0.141874 10.5243 0.0471645C10.0482 -0.0475447 9.55465 0.0010635 9.10614 0.186842C8.65763 0.372621 8.27428 0.687226 8.00457 1.09087C7.73487 1.49452 7.59091 1.96908 7.59091 2.45455V3.81818H5.40909V2.45455C5.40909 1.96908 5.26513 1.49452 4.99543 1.09087C4.72572 0.687226 4.34237 0.372621 3.89386 0.186842C3.44535 0.0010635 2.95182 -0.0475447 2.47569 0.0471645C1.99955 0.141874 1.56219 0.375646 1.21892 0.718921C0.875646 1.06219 0.641874 1.49955 0.547164 1.97569C0.452455 2.45182 0.501064 2.94535 0.686842 3.39386C0.872621 3.84237 1.18723 4.22572 1.59087 4.49543C1.99452 4.76513 2.46908 4.90909 2.95455 4.90909H4.31818V7.09091H2.95455C2.46908 7.09091 1.99452 7.23487 1.59087 7.50457C1.18723 7.77428 0.872621 8.15763 0.686842 8.60614C0.501064 9.05465 0.452455 9.54818 0.547164 10.0243C0.641874 10.5004 0.875646 10.9378 1.21892 11.2811C1.56219 11.6244 1.99955 11.8581 2.47569 11.9528C2.95182 12.0475 3.44535 11.9989 3.89386 11.8132C4.34237 11.6274 4.72572 11.3128 4.99543 10.9091C5.26513 10.5055 5.40909 10.0309 5.40909 9.54545V8.18182H7.59091V9.54545C7.59091 10.0309 7.73487 10.5055 8.00457 10.9091C8.27428 11.3128 8.65763 11.6274 9.10614 11.8132C9.55465 11.9989 10.0482 12.0475 10.5243 11.9528C11.0004 11.8581 11.4378 11.6244 11.7811 11.2811C12.1244 10.9378 12.3581 10.5004 12.4528 10.0243C12.5475 9.54818 12.4989 9.05465 12.3132 8.60614C12.1274 8.15763 11.8128 7.77428 11.4091 7.50457C11.0055 7.23487 10.5309 7.09091 10.0455 7.09091ZM8.68182 2.45455C8.68182 2.18484 8.76179 1.9212 8.91163 1.69695C9.06147 1.4727 9.27444 1.29792 9.52361 1.19471C9.77278 1.0915 10.047 1.0645 10.3115 1.11711C10.576 1.16973 10.819 1.2996 11.0097 1.49031C11.2004 1.68102 11.3303 1.92399 11.3829 2.18851C11.4355 2.45303 11.4085 2.72722 11.3053 2.97639C11.2021 3.22556 11.0273 3.43853 10.803 3.58837C10.5788 3.73821 10.3152 3.81818 10.0455 3.81818H8.68182V2.45455ZM1.59091 2.45455C1.59091 2.09289 1.73458 1.74604 1.99031 1.49031C2.24604 1.23458 2.59289 1.09091 2.95455 1.09091C3.3162 1.09091 3.66305 1.23458 3.91878 1.49031C4.17451 1.74604 4.31818 2.09289 4.31818 2.45455V3.81818H2.95455C2.59289 3.81818 2.24604 3.67451 1.99031 3.41878C1.73458 3.16305 1.59091 2.8162 1.59091 2.45455ZM4.31818 9.54545C4.31818 9.81516 4.23821 10.0788 4.08837 10.303C3.93853 10.5273 3.72556 10.7021 3.47639 10.8053C3.22722 10.9085 2.95303 10.9355 2.68851 10.8829C2.42399 10.8303 2.18102 10.7004 1.99031 10.5097C1.7996 10.319 1.66973 10.076 1.61711 9.81149C1.5645 9.54697 1.5915 9.27278 1.69471 9.02361C1.79792 8.77444 1.9727 8.56147 2.19695 8.41163C2.4212 8.26179 2.68484 8.18182 2.95455 8.18182H4.31818V9.54545ZM5.40909 4.90909H7.59091V7.09091H5.40909V4.90909ZM10.0455 10.9091C9.68379 10.9091 9.33695 10.7654 9.08122 10.5097C8.82549 10.254 8.68182 9.90711 8.68182 9.54545V8.18182H10.0455C10.4071 8.18182 10.754 8.32549 11.0097 8.58122C11.2654 8.83695 11.4091 9.18379 11.4091 9.54545C11.4091 9.90711 11.2654 10.254 11.0097 10.5097C10.754 10.7654 10.4071 10.9091 10.0455 10.9091Z" fill="#86858A"/>
</svg>
